<?xml version="1.0" encoding="utf-8"?>
<svg xmlns="http://www.w3.org/2000/svg" xmlns:xlink="http://www.w3.org/1999/xlink" width="600" height="400" viewBox="0 0 2400 1600">
<defs>
  <clipPath id="clip260">
    <rect x="0" y="0" width="2400" height="1600"/>
  </clipPath>
</defs>
<path clip-path="url(#clip260)" d="M0 1600 L2400 1600 L2400 0 L0 0  Z" fill="#ffffff" fill-rule="evenodd" fill-opacity="1"/>
<defs>
  <clipPath id="clip261">
    <rect x="219" y="47" width="2134" height="1365"/>
  </clipPath>
</defs>
<path clip-path="url(#clip260)" d="M219.866 1410.9 L2352.76 1410.9 L2352.76 47.2441 L219.866 47.2441  Z" fill="#ffffff" fill-rule="evenodd" fill-opacity="1"/>
<polyline clip-path="url(#clip261)" style="stroke:#000000; stroke-linecap:round; stroke-linejoin:round; stroke-width:2; stroke-opacity:0.1; fill:none" points="682.663,1410.9 682.663,47.2441 "/>
<polyline clip-path="url(#clip261)" style="stroke:#000000; stroke-linecap:round; stroke-linejoin:round; stroke-width:2; stroke-opacity:0.1; fill:none" points="1889.96,1410.9 1889.96,47.2441 "/>
<polyline clip-path="url(#clip261)" style="stroke:#000000; stroke-linecap:round; stroke-linejoin:round; stroke-width:2; stroke-opacity:0.1; fill:none" points="219.866,1410.9 2352.76,1410.9 "/>
<polyline clip-path="url(#clip261)" style="stroke:#000000; stroke-linecap:round; stroke-linejoin:round; stroke-width:2; stroke-opacity:0.1; fill:none" points="219.866,1138.17 2352.76,1138.17 "/>
<polyline clip-path="url(#clip261)" style="stroke:#000000; stroke-linecap:round; stroke-linejoin:round; stroke-width:2; stroke-opacity:0.1; fill:none" points="219.866,865.436 2352.76,865.436 "/>
<polyline clip-path="url(#clip261)" style="stroke:#000000; stroke-linecap:round; stroke-linejoin:round; stroke-width:2; stroke-opacity:0.1; fill:none" points="219.866,592.705 2352.76,592.705 "/>
<polyline clip-path="url(#clip261)" style="stroke:#000000; stroke-linecap:round; stroke-linejoin:round; stroke-width:2; stroke-opacity:0.1; fill:none" points="219.866,319.975 2352.76,319.975 "/>
<polyline clip-path="url(#clip261)" style="stroke:#000000; stroke-linecap:round; stroke-linejoin:round; stroke-width:2; stroke-opacity:0.1; fill:none" points="219.866,47.2441 2352.76,47.2441 "/>
<polyline clip-path="url(#clip260)" style="stroke:#000000; stroke-linecap:round; stroke-linejoin:round; stroke-width:4; stroke-opacity:1; fill:none" points="219.866,1410.9 2352.76,1410.9 "/>
<polyline clip-path="url(#clip260)" style="stroke:#000000; stroke-linecap:round; stroke-linejoin:round; stroke-width:4; stroke-opacity:1; fill:none" points="682.663,1410.9 682.663,1392 "/>
<polyline clip-path="url(#clip260)" style="stroke:#000000; stroke-linecap:round; stroke-linejoin:round; stroke-width:4; stroke-opacity:1; fill:none" points="1889.96,1410.9 1889.96,1392 "/>
<path clip-path="url(#clip260)" d="M632.543 1485.02 L640.182 1485.02 L640.182 1458.66 L631.872 1460.32 L631.872 1456.06 L640.136 1454.4 L644.812 1454.4 L644.812 1485.02 L652.451 1485.02 L652.451 1488.96 L632.543 1488.96 L632.543 1485.02 Z" fill="#000000" fill-rule="nonzero" fill-opacity="1" /><path clip-path="url(#clip260)" d="M671.895 1457.48 Q668.284 1457.48 666.455 1461.04 Q664.65 1464.58 664.65 1471.71 Q664.65 1478.82 666.455 1482.38 Q668.284 1485.92 671.895 1485.92 Q675.529 1485.92 677.335 1482.38 Q679.163 1478.82 679.163 1471.71 Q679.163 1464.58 677.335 1461.04 Q675.529 1457.48 671.895 1457.48 M671.895 1453.77 Q677.705 1453.77 680.761 1458.38 Q683.839 1462.96 683.839 1471.71 Q683.839 1480.44 680.761 1485.04 Q677.705 1489.63 671.895 1489.63 Q666.085 1489.63 663.006 1485.04 Q659.951 1480.44 659.951 1471.71 Q659.951 1462.96 663.006 1458.38 Q666.085 1453.77 671.895 1453.77 Z" fill="#000000" fill-rule="nonzero" fill-opacity="1" /><path clip-path="url(#clip260)" d="M683.839 1447.87 L707.951 1447.87 L707.951 1451.07 L683.839 1451.07 L683.839 1447.87 Z" fill="#000000" fill-rule="nonzero" fill-opacity="1" /><path clip-path="url(#clip260)" d="M727.661 1446.41 Q730.389 1446.99 731.912 1448.83 Q733.454 1450.68 733.454 1453.38 Q733.454 1457.54 730.595 1459.82 Q727.737 1462.09 722.47 1462.09 Q720.703 1462.09 718.822 1461.73 Q716.96 1461.4 714.966 1460.7 L714.966 1457.03 Q716.546 1457.95 718.427 1458.42 Q720.308 1458.89 722.358 1458.89 Q725.931 1458.89 727.793 1457.48 Q729.674 1456.07 729.674 1453.38 Q729.674 1450.9 727.925 1449.51 Q726.194 1448.1 723.091 1448.1 L719.819 1448.1 L719.819 1444.98 L723.242 1444.98 Q726.044 1444.98 727.53 1443.87 Q729.016 1442.74 729.016 1440.63 Q729.016 1438.47 727.473 1437.32 Q725.95 1436.16 723.091 1436.16 Q721.53 1436.16 719.743 1436.49 Q717.957 1436.83 715.812 1437.55 L715.812 1434.16 Q717.975 1433.56 719.856 1433.26 Q721.756 1432.96 723.43 1432.96 Q727.755 1432.96 730.276 1434.93 Q732.796 1436.89 732.796 1440.24 Q732.796 1442.57 731.461 1444.19 Q730.125 1445.79 727.661 1446.41 Z" fill="#000000" fill-rule="nonzero" fill-opacity="1" /><path clip-path="url(#clip260)" d="M1854.94 1485.02 L1862.58 1485.02 L1862.58 1458.66 L1854.27 1460.32 L1854.27 1456.06 L1862.53 1454.4 L1867.21 1454.4 L1867.21 1485.02 L1874.85 1485.02 L1874.85 1488.96 L1854.94 1488.96 L1854.94 1485.02 Z" fill="#000000" fill-rule="nonzero" fill-opacity="1" /><path clip-path="url(#clip260)" d="M1894.29 1457.48 Q1890.68 1457.48 1888.85 1461.04 Q1887.05 1464.58 1887.05 1471.71 Q1887.05 1478.82 1888.85 1482.38 Q1890.68 1485.92 1894.29 1485.92 Q1897.93 1485.92 1899.73 1482.38 Q1901.56 1478.82 1901.56 1471.71 Q1901.56 1464.58 1899.73 1461.04 Q1897.93 1457.48 1894.29 1457.48 M1894.29 1453.77 Q1900.1 1453.77 1903.16 1458.38 Q1906.24 1462.96 1906.24 1471.71 Q1906.24 1480.44 1903.16 1485.04 Q1900.1 1489.63 1894.29 1489.63 Q1888.48 1489.63 1885.4 1485.04 Q1882.35 1480.44 1882.35 1471.71 Q1882.35 1462.96 1885.4 1458.38 Q1888.48 1453.77 1894.29 1453.77 Z" fill="#000000" fill-rule="nonzero" fill-opacity="1" /><path clip-path="url(#clip260)" d="M1915.94 1435.97 Q1913.01 1435.97 1911.52 1438.86 Q1910.06 1441.74 1910.06 1447.53 Q1910.06 1453.31 1911.52 1456.2 Q1913.01 1459.08 1915.94 1459.08 Q1918.9 1459.08 1920.36 1456.2 Q1921.85 1453.31 1921.85 1447.53 Q1921.85 1441.74 1920.36 1438.86 Q1918.9 1435.97 1915.94 1435.97 M1915.94 1432.96 Q1920.66 1432.96 1923.15 1436.7 Q1925.65 1440.43 1925.65 1447.53 Q1925.65 1454.62 1923.15 1458.37 Q1920.66 1462.09 1915.94 1462.09 Q1911.22 1462.09 1908.72 1458.37 Q1906.24 1454.62 1906.24 1447.53 Q1906.24 1440.43 1908.72 1436.7 Q1911.22 1432.96 1915.94 1432.96 Z" fill="#000000" fill-rule="nonzero" fill-opacity="1" /><path clip-path="url(#clip260)" d="M772.567 1526.67 L782.147 1526.67 L794.274 1559 L806.464 1526.67 L816.045 1526.67 L816.045 1574.19 L809.774 1574.19 L809.774 1532.46 L797.52 1565.05 L791.059 1565.05 L778.805 1532.46 L778.805 1574.19 L772.567 1574.19 L772.567 1526.67 Z" fill="#000000" fill-rule="nonzero" fill-opacity="1" /><path clip-path="url(#clip260)" d="M859.045 1554.9 L859.045 1557.76 L832.118 1557.76 Q832.5 1563.81 835.746 1566.99 Q839.025 1570.14 844.849 1570.14 Q848.223 1570.14 851.374 1569.32 Q854.557 1568.49 857.676 1566.83 L857.676 1572.37 Q854.525 1573.71 851.215 1574.41 Q847.905 1575.11 844.499 1575.11 Q835.969 1575.11 830.972 1570.14 Q826.007 1565.18 826.007 1556.71 Q826.007 1547.96 830.717 1542.83 Q835.46 1537.68 843.481 1537.68 Q850.674 1537.68 854.843 1542.33 Q859.045 1546.94 859.045 1554.9 M853.188 1553.18 Q853.125 1548.37 850.483 1545.51 Q847.873 1542.64 843.544 1542.64 Q838.643 1542.64 835.683 1545.41 Q832.754 1548.18 832.309 1553.21 L853.188 1553.18 Z" fill="#000000" fill-rule="nonzero" fill-opacity="1" /><path clip-path="url(#clip260)" d="M884.858 1556.27 Q877.76 1556.27 875.023 1557.89 Q872.286 1559.51 872.286 1563.43 Q872.286 1566.55 874.323 1568.39 Q876.391 1570.21 879.924 1570.21 Q884.794 1570.21 887.722 1566.77 Q890.682 1563.3 890.682 1557.57 L890.682 1556.27 L884.858 1556.27 M896.539 1553.85 L896.539 1574.19 L890.682 1574.19 L890.682 1568.77 Q888.677 1572.02 885.685 1573.58 Q882.693 1575.11 878.365 1575.11 Q872.89 1575.11 869.644 1572.05 Q866.429 1568.97 866.429 1563.81 Q866.429 1557.79 870.439 1554.74 Q874.482 1551.68 882.471 1551.68 L890.682 1551.68 L890.682 1551.11 Q890.682 1547.07 888.009 1544.87 Q885.367 1542.64 880.561 1542.64 Q877.505 1542.64 874.609 1543.38 Q871.713 1544.11 869.039 1545.57 L869.039 1540.16 Q872.254 1538.92 875.277 1538.31 Q878.301 1537.68 881.166 1537.68 Q888.9 1537.68 892.719 1541.69 Q896.539 1545.7 896.539 1553.85 Z" fill="#000000" fill-rule="nonzero" fill-opacity="1" /><path clip-path="url(#clip260)" d="M938.234 1552.67 L938.234 1574.19 L932.378 1574.19 L932.378 1552.86 Q932.378 1547.8 930.404 1545.29 Q928.431 1542.77 924.484 1542.77 Q919.742 1542.77 917.005 1545.79 Q914.267 1548.82 914.267 1554.04 L914.267 1574.19 L908.379 1574.19 L908.379 1538.54 L914.267 1538.54 L914.267 1544.08 Q916.368 1540.86 919.201 1539.27 Q922.065 1537.68 925.789 1537.68 Q931.932 1537.68 935.083 1541.5 Q938.234 1545.29 938.234 1552.67 Z" fill="#000000" fill-rule="nonzero" fill-opacity="1" /><path clip-path="url(#clip260)" d="M976.301 1568.84 L976.301 1587.74 L970.413 1587.74 L970.413 1538.54 L976.301 1538.54 L976.301 1543.95 Q978.147 1540.77 980.948 1539.24 Q983.781 1537.68 987.696 1537.68 Q994.189 1537.68 998.231 1542.83 Q1002.31 1547.99 1002.31 1556.39 Q1002.31 1564.8 998.231 1569.95 Q994.189 1575.11 987.696 1575.11 Q983.781 1575.11 980.948 1573.58 Q978.147 1572.02 976.301 1568.84 M996.226 1556.39 Q996.226 1549.93 993.552 1546.27 Q990.91 1542.58 986.264 1542.58 Q981.617 1542.58 978.943 1546.27 Q976.301 1549.93 976.301 1556.39 Q976.301 1562.85 978.943 1566.55 Q981.617 1570.21 986.264 1570.21 Q990.91 1570.21 993.552 1566.55 Q996.226 1562.85 996.226 1556.39 Z" fill="#000000" fill-rule="nonzero" fill-opacity="1" /><path clip-path="url(#clip260)" d="M1041.65 1552.67 L1041.65 1574.19 L1035.79 1574.19 L1035.79 1552.86 Q1035.79 1547.8 1033.82 1545.29 Q1031.84 1542.77 1027.9 1542.77 Q1023.15 1542.77 1020.42 1545.79 Q1017.68 1548.82 1017.68 1554.04 L1017.68 1574.19 L1011.79 1574.19 L1011.79 1524.66 L1017.68 1524.66 L1017.68 1544.08 Q1019.78 1540.86 1022.61 1539.27 Q1025.48 1537.68 1029.2 1537.68 Q1035.34 1537.68 1038.49 1541.5 Q1041.65 1545.29 1041.65 1552.67 Z" fill="#000000" fill-rule="nonzero" fill-opacity="1" /><path clip-path="url(#clip260)" d="M1067.14 1542.64 Q1062.43 1542.64 1059.69 1546.34 Q1056.95 1550 1056.95 1556.39 Q1056.95 1562.79 1059.66 1566.48 Q1062.4 1570.14 1067.14 1570.14 Q1071.82 1570.14 1074.56 1566.45 Q1077.29 1562.76 1077.29 1556.39 Q1077.29 1550.06 1074.56 1546.37 Q1071.82 1542.64 1067.14 1542.64 M1067.14 1537.68 Q1074.78 1537.68 1079.14 1542.64 Q1083.5 1547.61 1083.5 1556.39 Q1083.5 1565.15 1079.14 1570.14 Q1074.78 1575.11 1067.14 1575.11 Q1059.47 1575.11 1055.11 1570.14 Q1050.78 1565.15 1050.78 1556.39 Q1050.78 1547.61 1055.11 1542.64 Q1059.47 1537.68 1067.14 1537.68 Z" fill="#000000" fill-rule="nonzero" fill-opacity="1" /><path clip-path="url(#clip260)" d="M1099 1528.42 L1099 1538.54 L1111.06 1538.54 L1111.06 1543.09 L1099 1543.09 L1099 1562.44 Q1099 1566.8 1100.18 1568.04 Q1101.39 1569.28 1105.05 1569.28 L1111.06 1569.28 L1111.06 1574.19 L1105.05 1574.19 Q1098.27 1574.19 1095.69 1571.67 Q1093.11 1569.12 1093.11 1562.44 L1093.11 1543.09 L1088.82 1543.09 L1088.82 1538.54 L1093.11 1538.54 L1093.11 1528.42 L1099 1528.42 Z" fill="#000000" fill-rule="nonzero" fill-opacity="1" /><path clip-path="url(#clip260)" d="M1132.58 1542.64 Q1127.87 1542.64 1125.13 1546.34 Q1122.39 1550 1122.39 1556.39 Q1122.39 1562.79 1125.1 1566.48 Q1127.84 1570.14 1132.58 1570.14 Q1137.26 1570.14 1140 1566.45 Q1142.73 1562.76 1142.73 1556.39 Q1142.73 1550.06 1140 1546.37 Q1137.26 1542.64 1132.58 1542.64 M1132.58 1537.68 Q1140.22 1537.68 1144.58 1542.64 Q1148.94 1547.61 1148.94 1556.39 Q1148.94 1565.15 1144.58 1570.14 Q1140.22 1575.11 1132.58 1575.11 Q1124.91 1575.11 1120.55 1570.14 Q1116.22 1565.15 1116.22 1556.39 Q1116.22 1547.61 1120.55 1542.64 Q1124.91 1537.68 1132.58 1537.68 Z" fill="#000000" fill-rule="nonzero" fill-opacity="1" /><path clip-path="url(#clip260)" d="M1188.28 1552.67 L1188.28 1574.19 L1182.42 1574.19 L1182.42 1552.86 Q1182.42 1547.8 1180.45 1545.29 Q1178.48 1542.77 1174.53 1542.77 Q1169.79 1542.77 1167.05 1545.79 Q1164.31 1548.82 1164.31 1554.04 L1164.31 1574.19 L1158.42 1574.19 L1158.42 1538.54 L1164.31 1538.54 L1164.31 1544.08 Q1166.41 1540.86 1169.25 1539.27 Q1172.11 1537.68 1175.83 1537.68 Q1181.98 1537.68 1185.13 1541.5 Q1188.28 1545.29 1188.28 1552.67 Z" fill="#000000" fill-rule="nonzero" fill-opacity="1" /><path clip-path="url(#clip260)" d="M1250.31 1552.67 L1250.31 1574.19 L1244.46 1574.19 L1244.46 1552.86 Q1244.46 1547.8 1242.48 1545.29 Q1240.51 1542.77 1236.56 1542.77 Q1231.82 1542.77 1229.08 1545.79 Q1226.35 1548.82 1226.35 1554.04 L1226.35 1574.19 L1220.46 1574.19 L1220.46 1538.54 L1226.35 1538.54 L1226.35 1544.08 Q1228.45 1540.86 1231.28 1539.27 Q1234.14 1537.68 1237.87 1537.68 Q1244.01 1537.68 1247.16 1541.5 Q1250.31 1545.29 1250.31 1552.67 Z" fill="#000000" fill-rule="nonzero" fill-opacity="1" /><path clip-path="url(#clip260)" d="M1261.39 1560.12 L1261.39 1538.54 L1267.25 1538.54 L1267.25 1559.89 Q1267.25 1564.96 1269.22 1567.5 Q1271.19 1570.02 1275.14 1570.02 Q1279.88 1570.02 1282.62 1566.99 Q1285.39 1563.97 1285.39 1558.75 L1285.39 1538.54 L1291.24 1538.54 L1291.24 1574.19 L1285.39 1574.19 L1285.39 1568.71 Q1283.26 1571.96 1280.42 1573.55 Q1277.62 1575.11 1273.9 1575.11 Q1267.76 1575.11 1264.57 1571.29 Q1261.39 1567.47 1261.39 1560.12 M1276.13 1537.68 L1276.13 1537.68 Z" fill="#000000" fill-rule="nonzero" fill-opacity="1" /><path clip-path="url(#clip260)" d="M1331.06 1545.38 Q1333.26 1541.43 1336.31 1539.56 Q1339.37 1537.68 1343.51 1537.68 Q1349.08 1537.68 1352.1 1541.59 Q1355.12 1545.48 1355.12 1552.67 L1355.12 1574.19 L1349.24 1574.19 L1349.24 1552.86 Q1349.24 1547.74 1347.42 1545.25 Q1345.61 1542.77 1341.88 1542.77 Q1337.33 1542.77 1334.69 1545.79 Q1332.05 1548.82 1332.05 1554.04 L1332.05 1574.19 L1326.16 1574.19 L1326.16 1552.86 Q1326.16 1547.7 1324.35 1545.25 Q1322.53 1542.77 1318.74 1542.77 Q1314.26 1542.77 1311.61 1545.83 Q1308.97 1548.85 1308.97 1554.04 L1308.97 1574.19 L1303.08 1574.19 L1303.08 1538.54 L1308.97 1538.54 L1308.97 1544.08 Q1310.98 1540.8 1313.78 1539.24 Q1316.58 1537.68 1320.43 1537.68 Q1324.31 1537.68 1327.02 1539.65 Q1329.76 1541.62 1331.06 1545.38 Z" fill="#000000" fill-rule="nonzero" fill-opacity="1" /><path clip-path="url(#clip260)" d="M1392.4 1556.39 Q1392.4 1549.93 1389.72 1546.27 Q1387.08 1542.58 1382.43 1542.58 Q1377.79 1542.58 1375.11 1546.27 Q1372.47 1549.93 1372.47 1556.39 Q1372.47 1562.85 1375.11 1566.55 Q1377.79 1570.21 1382.43 1570.21 Q1387.08 1570.21 1389.72 1566.55 Q1392.4 1562.85 1392.4 1556.39 M1372.47 1543.95 Q1374.32 1540.77 1377.12 1539.24 Q1379.95 1537.68 1383.87 1537.68 Q1390.36 1537.68 1394.4 1542.83 Q1398.47 1547.99 1398.47 1556.39 Q1398.47 1564.8 1394.4 1569.95 Q1390.36 1575.11 1383.87 1575.11 Q1379.95 1575.11 1377.12 1573.58 Q1374.32 1572.02 1372.47 1568.84 L1372.47 1574.19 L1366.58 1574.19 L1366.58 1524.66 L1372.47 1524.66 L1372.47 1543.95 Z" fill="#000000" fill-rule="nonzero" fill-opacity="1" /><path clip-path="url(#clip260)" d="M1438.67 1554.9 L1438.67 1557.76 L1411.75 1557.76 Q1412.13 1563.81 1415.38 1566.99 Q1418.65 1570.14 1424.48 1570.14 Q1427.85 1570.14 1431 1569.32 Q1434.19 1568.49 1437.31 1566.83 L1437.31 1572.37 Q1434.15 1573.71 1430.84 1574.41 Q1427.53 1575.11 1424.13 1575.11 Q1415.6 1575.11 1410.6 1570.14 Q1405.64 1565.18 1405.64 1556.71 Q1405.64 1547.96 1410.35 1542.83 Q1415.09 1537.68 1423.11 1537.68 Q1430.3 1537.68 1434.47 1542.33 Q1438.67 1546.94 1438.67 1554.9 M1432.82 1553.18 Q1432.75 1548.37 1430.11 1545.51 Q1427.5 1542.64 1423.17 1542.64 Q1418.27 1542.64 1415.31 1545.41 Q1412.38 1548.18 1411.94 1553.21 L1432.82 1553.18 Z" fill="#000000" fill-rule="nonzero" fill-opacity="1" /><path clip-path="url(#clip260)" d="M1468.94 1544.01 Q1467.96 1543.44 1466.78 1543.18 Q1465.63 1542.9 1464.23 1542.9 Q1459.27 1542.9 1456.59 1546.14 Q1453.95 1549.36 1453.95 1555.41 L1453.95 1574.19 L1448.06 1574.19 L1448.06 1538.54 L1453.95 1538.54 L1453.95 1544.08 Q1455.8 1540.83 1458.76 1539.27 Q1461.72 1537.68 1465.95 1537.68 Q1466.56 1537.68 1467.29 1537.77 Q1468.02 1537.84 1468.91 1538 L1468.94 1544.01 Z" fill="#000000" fill-rule="nonzero" fill-opacity="1" /><path clip-path="url(#clip260)" d="M1501.47 1568.84 L1501.47 1587.74 L1495.58 1587.74 L1495.58 1538.54 L1501.47 1538.54 L1501.47 1543.95 Q1503.32 1540.77 1506.12 1539.24 Q1508.95 1537.68 1512.87 1537.68 Q1519.36 1537.68 1523.4 1542.83 Q1527.48 1547.99 1527.48 1556.39 Q1527.48 1564.8 1523.4 1569.95 Q1519.36 1575.11 1512.87 1575.11 Q1508.95 1575.11 1506.12 1573.58 Q1503.32 1572.02 1501.47 1568.84 M1521.4 1556.39 Q1521.4 1549.93 1518.72 1546.27 Q1516.08 1542.58 1511.43 1542.58 Q1506.79 1542.58 1504.11 1546.27 Q1501.47 1549.93 1501.47 1556.39 Q1501.47 1562.85 1504.11 1566.55 Q1506.79 1570.21 1511.43 1570.21 Q1516.08 1570.21 1518.72 1566.55 Q1521.4 1562.85 1521.4 1556.39 Z" fill="#000000" fill-rule="nonzero" fill-opacity="1" /><path clip-path="url(#clip260)" d="M1567.68 1554.9 L1567.68 1557.76 L1540.75 1557.76 Q1541.13 1563.81 1544.38 1566.99 Q1547.66 1570.14 1553.48 1570.14 Q1556.85 1570.14 1560 1569.32 Q1563.19 1568.49 1566.31 1566.83 L1566.31 1572.37 Q1563.16 1573.71 1559.85 1574.41 Q1556.54 1575.11 1553.13 1575.11 Q1544.6 1575.11 1539.6 1570.14 Q1534.64 1565.18 1534.64 1556.71 Q1534.64 1547.96 1539.35 1542.83 Q1544.09 1537.68 1552.11 1537.68 Q1559.3 1537.68 1563.47 1542.33 Q1567.68 1546.94 1567.68 1554.9 M1561.82 1553.18 Q1561.76 1548.37 1559.11 1545.51 Q1556.5 1542.64 1552.17 1542.64 Q1547.27 1542.64 1544.31 1545.41 Q1541.38 1548.18 1540.94 1553.21 L1561.82 1553.18 Z" fill="#000000" fill-rule="nonzero" fill-opacity="1" /><path clip-path="url(#clip260)" d="M1597.94 1544.01 Q1596.96 1543.44 1595.78 1543.18 Q1594.63 1542.9 1593.23 1542.9 Q1588.27 1542.9 1585.59 1546.14 Q1582.95 1549.36 1582.95 1555.41 L1582.95 1574.19 L1577.06 1574.19 L1577.06 1538.54 L1582.95 1538.54 L1582.95 1544.08 Q1584.8 1540.83 1587.76 1539.27 Q1590.72 1537.68 1594.95 1537.68 Q1595.56 1537.68 1596.29 1537.77 Q1597.02 1537.84 1597.91 1538 L1597.94 1544.01 Z" fill="#000000" fill-rule="nonzero" fill-opacity="1" /><path clip-path="url(#clip260)" d="M1652.56 1545.38 Q1654.76 1541.43 1657.81 1539.56 Q1660.87 1537.68 1665.01 1537.68 Q1670.58 1537.68 1673.6 1541.59 Q1676.62 1545.48 1676.62 1552.67 L1676.62 1574.19 L1670.74 1574.19 L1670.74 1552.86 Q1670.74 1547.74 1668.92 1545.25 Q1667.11 1542.77 1663.38 1542.77 Q1658.83 1542.77 1656.19 1545.79 Q1653.55 1548.82 1653.55 1554.04 L1653.55 1574.19 L1647.66 1574.19 L1647.66 1552.86 Q1647.66 1547.7 1645.85 1545.25 Q1644.03 1542.77 1640.24 1542.77 Q1635.76 1542.77 1633.11 1545.83 Q1630.47 1548.85 1630.47 1554.04 L1630.47 1574.19 L1624.58 1574.19 L1624.58 1538.54 L1630.47 1538.54 L1630.47 1544.08 Q1632.48 1540.8 1635.28 1539.24 Q1638.08 1537.68 1641.93 1537.68 Q1645.81 1537.68 1648.52 1539.65 Q1651.26 1541.62 1652.56 1545.38 Z" fill="#000000" fill-rule="nonzero" fill-opacity="1" /><path clip-path="url(#clip260)" d="M1702.12 1542.64 Q1697.41 1542.64 1694.67 1546.34 Q1691.93 1550 1691.93 1556.39 Q1691.93 1562.79 1694.64 1566.48 Q1697.38 1570.14 1702.12 1570.14 Q1706.8 1570.14 1709.54 1566.45 Q1712.27 1562.76 1712.27 1556.39 Q1712.27 1550.06 1709.54 1546.37 Q1706.8 1542.64 1702.12 1542.64 M1702.12 1537.68 Q1709.76 1537.68 1714.12 1542.64 Q1718.48 1547.61 1718.48 1556.39 Q1718.48 1565.15 1714.12 1570.14 Q1709.76 1575.11 1702.12 1575.11 Q1694.45 1575.11 1690.09 1570.14 Q1685.76 1565.15 1685.76 1556.39 Q1685.76 1547.61 1690.09 1542.64 Q1694.45 1537.68 1702.12 1537.68 Z" fill="#000000" fill-rule="nonzero" fill-opacity="1" /><path clip-path="url(#clip260)" d="M1751.64 1543.95 L1751.64 1524.66 L1757.5 1524.66 L1757.5 1574.19 L1751.64 1574.19 L1751.64 1568.84 Q1749.8 1572.02 1746.97 1573.58 Q1744.16 1575.11 1740.22 1575.11 Q1733.76 1575.11 1729.68 1569.95 Q1725.64 1564.8 1725.64 1556.39 Q1725.64 1547.99 1729.68 1542.83 Q1733.76 1537.68 1740.22 1537.68 Q1744.16 1537.68 1746.97 1539.24 Q1749.8 1540.77 1751.64 1543.95 M1731.69 1556.39 Q1731.69 1562.85 1734.33 1566.55 Q1737 1570.21 1741.65 1570.21 Q1746.3 1570.21 1748.97 1566.55 Q1751.64 1562.85 1751.64 1556.39 Q1751.64 1549.93 1748.97 1546.27 Q1746.3 1542.58 1741.65 1542.58 Q1737 1542.58 1734.33 1546.27 Q1731.69 1549.93 1731.69 1556.39 Z" fill="#000000" fill-rule="nonzero" fill-opacity="1" /><path clip-path="url(#clip260)" d="M1800.06 1554.9 L1800.06 1557.76 L1773.13 1557.76 Q1773.51 1563.81 1776.76 1566.99 Q1780.04 1570.14 1785.86 1570.14 Q1789.23 1570.14 1792.38 1569.32 Q1795.57 1568.49 1798.69 1566.83 L1798.69 1572.37 Q1795.54 1573.71 1792.23 1574.41 Q1788.92 1575.11 1785.51 1575.11 Q1776.98 1575.11 1771.98 1570.14 Q1767.02 1565.18 1767.02 1556.71 Q1767.02 1547.96 1771.73 1542.83 Q1776.47 1537.68 1784.49 1537.68 Q1791.68 1537.68 1795.85 1542.33 Q1800.06 1546.94 1800.06 1554.9 M1794.2 1553.18 Q1794.14 1548.37 1791.49 1545.51 Q1788.88 1542.64 1784.55 1542.64 Q1779.65 1542.64 1776.69 1545.41 Q1773.77 1548.18 1773.32 1553.21 L1794.2 1553.18 Z" fill="#000000" fill-rule="nonzero" fill-opacity="1" /><polyline clip-path="url(#clip260)" style="stroke:#000000; stroke-linecap:round; stroke-linejoin:round; stroke-width:4; stroke-opacity:1; fill:none" points="219.866,1410.9 219.866,47.2441 "/>
<polyline clip-path="url(#clip260)" style="stroke:#000000; stroke-linecap:round; stroke-linejoin:round; stroke-width:4; stroke-opacity:1; fill:none" points="219.866,1410.9 238.764,1410.9 "/>
<polyline clip-path="url(#clip260)" style="stroke:#000000; stroke-linecap:round; stroke-linejoin:round; stroke-width:4; stroke-opacity:1; fill:none" points="219.866,1138.17 238.764,1138.17 "/>
<polyline clip-path="url(#clip260)" style="stroke:#000000; stroke-linecap:round; stroke-linejoin:round; stroke-width:4; stroke-opacity:1; fill:none" points="219.866,865.436 238.764,865.436 "/>
<polyline clip-path="url(#clip260)" style="stroke:#000000; stroke-linecap:round; stroke-linejoin:round; stroke-width:4; stroke-opacity:1; fill:none" points="219.866,592.705 238.764,592.705 "/>
<polyline clip-path="url(#clip260)" style="stroke:#000000; stroke-linecap:round; stroke-linejoin:round; stroke-width:4; stroke-opacity:1; fill:none" points="219.866,319.975 238.764,319.975 "/>
<polyline clip-path="url(#clip260)" style="stroke:#000000; stroke-linecap:round; stroke-linejoin:round; stroke-width:4; stroke-opacity:1; fill:none" points="219.866,47.2441 238.764,47.2441 "/>
<path clip-path="url(#clip260)" d="M126.691 1396.7 Q123.08 1396.7 121.251 1400.26 Q119.445 1403.8 119.445 1410.93 Q119.445 1418.04 121.251 1421.6 Q123.08 1425.14 126.691 1425.14 Q130.325 1425.14 132.13 1421.6 Q133.959 1418.04 133.959 1410.93 Q133.959 1403.8 132.13 1400.26 Q130.325 1396.7 126.691 1396.7 M126.691 1392.99 Q132.501 1392.99 135.556 1397.6 Q138.635 1402.18 138.635 1410.93 Q138.635 1419.66 135.556 1424.26 Q132.501 1428.85 126.691 1428.85 Q120.88 1428.85 117.802 1424.26 Q114.746 1419.66 114.746 1410.93 Q114.746 1402.18 117.802 1397.6 Q120.88 1392.99 126.691 1392.99 Z" fill="#000000" fill-rule="nonzero" fill-opacity="1" /><path clip-path="url(#clip260)" d="M146.853 1422.3 L151.737 1422.3 L151.737 1428.18 L146.853 1428.18 L146.853 1422.3 Z" fill="#000000" fill-rule="nonzero" fill-opacity="1" /><path clip-path="url(#clip260)" d="M171.922 1396.7 Q168.311 1396.7 166.482 1400.26 Q164.677 1403.8 164.677 1410.93 Q164.677 1418.04 166.482 1421.6 Q168.311 1425.14 171.922 1425.14 Q175.556 1425.14 177.362 1421.6 Q179.19 1418.04 179.19 1410.93 Q179.19 1403.8 177.362 1400.26 Q175.556 1396.7 171.922 1396.7 M171.922 1392.99 Q177.732 1392.99 180.788 1397.6 Q183.866 1402.18 183.866 1410.93 Q183.866 1419.66 180.788 1424.26 Q177.732 1428.85 171.922 1428.85 Q166.112 1428.85 163.033 1424.26 Q159.978 1419.66 159.978 1410.93 Q159.978 1402.18 163.033 1397.6 Q166.112 1392.99 171.922 1392.99 Z" fill="#000000" fill-rule="nonzero" fill-opacity="1" /><path clip-path="url(#clip260)" d="M128.288 1123.96 Q124.677 1123.96 122.848 1127.53 Q121.043 1131.07 121.043 1138.2 Q121.043 1145.31 122.848 1148.87 Q124.677 1152.41 128.288 1152.41 Q131.922 1152.41 133.728 1148.87 Q135.556 1145.31 135.556 1138.2 Q135.556 1131.07 133.728 1127.53 Q131.922 1123.96 128.288 1123.96 M128.288 1120.26 Q134.098 1120.26 137.154 1124.87 Q140.232 1129.45 140.232 1138.2 Q140.232 1146.93 137.154 1151.53 Q134.098 1156.12 128.288 1156.12 Q122.478 1156.12 119.399 1151.53 Q116.343 1146.93 116.343 1138.2 Q116.343 1129.45 119.399 1124.87 Q122.478 1120.26 128.288 1120.26 Z" fill="#000000" fill-rule="nonzero" fill-opacity="1" /><path clip-path="url(#clip260)" d="M148.45 1149.57 L153.334 1149.57 L153.334 1155.45 L148.45 1155.45 L148.45 1149.57 Z" fill="#000000" fill-rule="nonzero" fill-opacity="1" /><path clip-path="url(#clip260)" d="M167.547 1151.51 L183.866 1151.51 L183.866 1155.45 L161.922 1155.45 L161.922 1151.51 Q164.584 1148.76 169.167 1144.13 Q173.774 1139.47 174.954 1138.13 Q177.2 1135.61 178.079 1133.87 Q178.982 1132.11 178.982 1130.42 Q178.982 1127.67 177.038 1125.93 Q175.116 1124.2 172.014 1124.2 Q169.815 1124.2 167.362 1124.96 Q164.931 1125.72 162.153 1127.27 L162.153 1122.55 Q164.977 1121.42 167.431 1120.84 Q169.885 1120.26 171.922 1120.26 Q177.292 1120.26 180.487 1122.95 Q183.681 1125.63 183.681 1130.12 Q183.681 1132.25 182.871 1134.17 Q182.084 1136.07 179.977 1138.66 Q179.399 1139.34 176.297 1142.55 Q173.195 1145.75 167.547 1151.51 Z" fill="#000000" fill-rule="nonzero" fill-opacity="1" /><path clip-path="url(#clip260)" d="M126.205 851.234 Q122.593 851.234 120.765 854.799 Q118.959 858.341 118.959 865.47 Q118.959 872.577 120.765 876.142 Q122.593 879.683 126.205 879.683 Q129.839 879.683 131.644 876.142 Q133.473 872.577 133.473 865.47 Q133.473 858.341 131.644 854.799 Q129.839 851.234 126.205 851.234 M126.205 847.531 Q132.015 847.531 135.07 852.137 Q138.149 856.72 138.149 865.47 Q138.149 874.197 135.07 878.804 Q132.015 883.387 126.205 883.387 Q120.394 883.387 117.316 878.804 Q114.26 874.197 114.26 865.47 Q114.26 856.72 117.316 852.137 Q120.394 847.531 126.205 847.531 Z" fill="#000000" fill-rule="nonzero" fill-opacity="1" /><path clip-path="url(#clip260)" d="M146.366 876.836 L151.251 876.836 L151.251 882.716 L146.366 882.716 L146.366 876.836 Z" fill="#000000" fill-rule="nonzero" fill-opacity="1" /><path clip-path="url(#clip260)" d="M174.283 852.23 L162.477 870.679 L174.283 870.679 L174.283 852.23 M173.056 848.156 L178.936 848.156 L178.936 870.679 L183.866 870.679 L183.866 874.568 L178.936 874.568 L178.936 882.716 L174.283 882.716 L174.283 874.568 L158.681 874.568 L158.681 870.054 L173.056 848.156 Z" fill="#000000" fill-rule="nonzero" fill-opacity="1" /><path clip-path="url(#clip260)" d="M126.529 578.504 Q122.918 578.504 121.089 582.069 Q119.283 585.61 119.283 592.74 Q119.283 599.846 121.089 603.411 Q122.918 606.953 126.529 606.953 Q130.163 606.953 131.968 603.411 Q133.797 599.846 133.797 592.74 Q133.797 585.61 131.968 582.069 Q130.163 578.504 126.529 578.504 M126.529 574.8 Q132.339 574.8 135.394 579.407 Q138.473 583.99 138.473 592.74 Q138.473 601.467 135.394 606.073 Q132.339 610.656 126.529 610.656 Q120.718 610.656 117.64 606.073 Q114.584 601.467 114.584 592.74 Q114.584 583.99 117.64 579.407 Q120.718 574.8 126.529 574.8 Z" fill="#000000" fill-rule="nonzero" fill-opacity="1" /><path clip-path="url(#clip260)" d="M146.691 604.106 L151.575 604.106 L151.575 609.985 L146.691 609.985 L146.691 604.106 Z" fill="#000000" fill-rule="nonzero" fill-opacity="1" /><path clip-path="url(#clip260)" d="M172.339 590.842 Q169.19 590.842 167.339 592.994 Q165.51 595.147 165.51 598.897 Q165.51 602.624 167.339 604.8 Q169.19 606.953 172.339 606.953 Q175.487 606.953 177.315 604.8 Q179.167 602.624 179.167 598.897 Q179.167 595.147 177.315 592.994 Q175.487 590.842 172.339 590.842 M181.621 576.189 L181.621 580.448 Q179.862 579.615 178.056 579.175 Q176.274 578.735 174.514 578.735 Q169.885 578.735 167.431 581.86 Q165.001 584.985 164.653 591.305 Q166.019 589.291 168.079 588.226 Q170.139 587.138 172.616 587.138 Q177.825 587.138 180.834 590.309 Q183.866 593.457 183.866 598.897 Q183.866 604.221 180.718 607.439 Q177.57 610.656 172.339 610.656 Q166.343 610.656 163.172 606.073 Q160.001 601.467 160.001 592.74 Q160.001 584.545 163.89 579.684 Q167.778 574.8 174.329 574.8 Q176.089 574.8 177.871 575.147 Q179.676 575.495 181.621 576.189 Z" fill="#000000" fill-rule="nonzero" fill-opacity="1" /><path clip-path="url(#clip260)" d="M126.783 305.773 Q123.172 305.773 121.343 309.338 Q119.538 312.88 119.538 320.009 Q119.538 327.116 121.343 330.681 Q123.172 334.222 126.783 334.222 Q130.417 334.222 132.223 330.681 Q134.052 327.116 134.052 320.009 Q134.052 312.88 132.223 309.338 Q130.417 305.773 126.783 305.773 M126.783 302.07 Q132.593 302.07 135.649 306.676 Q138.728 311.259 138.728 320.009 Q138.728 328.736 135.649 333.343 Q132.593 337.926 126.783 337.926 Q120.973 337.926 117.894 333.343 Q114.839 328.736 114.839 320.009 Q114.839 311.259 117.894 306.676 Q120.973 302.07 126.783 302.07 Z" fill="#000000" fill-rule="nonzero" fill-opacity="1" /><path clip-path="url(#clip260)" d="M146.945 331.375 L151.829 331.375 L151.829 337.255 L146.945 337.255 L146.945 331.375 Z" fill="#000000" fill-rule="nonzero" fill-opacity="1" /><path clip-path="url(#clip260)" d="M172.014 320.843 Q168.681 320.843 166.76 322.625 Q164.862 324.407 164.862 327.532 Q164.862 330.657 166.76 332.44 Q168.681 334.222 172.014 334.222 Q175.348 334.222 177.269 332.44 Q179.19 330.634 179.19 327.532 Q179.19 324.407 177.269 322.625 Q175.371 320.843 172.014 320.843 M167.339 318.852 Q164.329 318.111 162.64 316.051 Q160.973 313.991 160.973 311.028 Q160.973 306.884 163.913 304.477 Q166.876 302.07 172.014 302.07 Q177.176 302.07 180.116 304.477 Q183.056 306.884 183.056 311.028 Q183.056 313.991 181.366 316.051 Q179.7 318.111 176.714 318.852 Q180.093 319.639 181.968 321.931 Q183.866 324.222 183.866 327.532 Q183.866 332.556 180.788 335.241 Q177.732 337.926 172.014 337.926 Q166.297 337.926 163.218 335.241 Q160.163 332.556 160.163 327.532 Q160.163 324.222 162.061 321.931 Q163.959 319.639 167.339 318.852 M165.626 311.468 Q165.626 314.153 167.292 315.657 Q168.982 317.162 172.014 317.162 Q175.024 317.162 176.714 315.657 Q178.426 314.153 178.426 311.468 Q178.426 308.783 176.714 307.278 Q175.024 305.773 172.014 305.773 Q168.982 305.773 167.292 307.278 Q165.626 308.783 165.626 311.468 Z" fill="#000000" fill-rule="nonzero" fill-opacity="1" /><path clip-path="url(#clip260)" d="M117.501 60.5889 L125.14 60.5889 L125.14 34.2233 L116.83 35.89 L116.83 31.6308 L125.093 29.9641 L129.769 29.9641 L129.769 60.5889 L137.408 60.5889 L137.408 64.5241 L117.501 64.5241 L117.501 60.5889 Z" fill="#000000" fill-rule="nonzero" fill-opacity="1" /><path clip-path="url(#clip260)" d="M146.853 58.6445 L151.737 58.6445 L151.737 64.5241 L146.853 64.5241 L146.853 58.6445 Z" fill="#000000" fill-rule="nonzero" fill-opacity="1" /><path clip-path="url(#clip260)" d="M171.922 33.0428 Q168.311 33.0428 166.482 36.6076 Q164.677 40.1492 164.677 47.2788 Q164.677 54.3853 166.482 57.9501 Q168.311 61.4917 171.922 61.4917 Q175.556 61.4917 177.362 57.9501 Q179.19 54.3853 179.19 47.2788 Q179.19 40.1492 177.362 36.6076 Q175.556 33.0428 171.922 33.0428 M171.922 29.3391 Q177.732 29.3391 180.788 33.9456 Q183.866 38.5289 183.866 47.2788 Q183.866 56.0056 180.788 60.6121 Q177.732 65.1954 171.922 65.1954 Q166.112 65.1954 163.033 60.6121 Q159.978 56.0056 159.978 47.2788 Q159.978 38.5289 163.033 33.9456 Q166.112 29.3391 171.922 29.3391 Z" fill="#000000" fill-rule="nonzero" fill-opacity="1" /><path clip-path="url(#clip260)" d="M16.4842 841.25 L16.4842 813.941 L21.895 813.941 L21.895 834.821 L35.8996 834.821 L35.8996 815.978 L41.3104 815.978 L41.3104 834.821 L64.0042 834.821 L64.0042 841.25 L16.4842 841.25 Z" fill="#000000" fill-rule="nonzero" fill-opacity="1" /><path clip-path="url(#clip260)" d="M28.3562 808.753 L28.3562 802.897 L64.0042 802.897 L64.0042 808.753 L28.3562 808.753 M14.479 808.753 L14.479 802.897 L21.895 802.897 L21.895 808.753 L14.479 808.753 Z" fill="#000000" fill-rule="nonzero" fill-opacity="1" /><path clip-path="url(#clip260)" d="M33.7671 767.185 L14.479 767.185 L14.479 761.329 L64.0042 761.329 L64.0042 767.185 L58.657 767.185 Q61.8398 769.031 63.3994 771.864 Q64.9272 774.665 64.9272 778.611 Q64.9272 785.073 59.771 789.147 Q54.6147 793.189 46.212 793.189 Q37.8093 793.189 32.6531 789.147 Q27.4968 785.073 27.4968 778.611 Q27.4968 774.665 29.0564 771.864 Q30.5842 769.031 33.7671 767.185 M46.212 787.142 Q52.6732 787.142 56.3653 784.5 Q60.0256 781.826 60.0256 777.179 Q60.0256 772.532 56.3653 769.859 Q52.6732 767.185 46.212 767.185 Q39.7508 767.185 36.0905 769.859 Q32.3984 772.532 32.3984 777.179 Q32.3984 781.826 36.0905 784.5 Q39.7508 787.142 46.212 787.142 Z" fill="#000000" fill-rule="nonzero" fill-opacity="1" /><path clip-path="url(#clip260)" d="M44.7161 718.774 L47.5806 718.774 L47.5806 745.701 Q53.6281 745.319 56.8109 742.072 Q59.9619 738.794 59.9619 732.969 Q59.9619 729.596 59.1344 726.445 Q58.3069 723.262 56.6518 720.142 L62.1899 720.142 Q63.5267 723.293 64.227 726.604 Q64.9272 729.914 64.9272 733.319 Q64.9272 741.85 59.9619 746.847 Q54.9967 751.812 46.5303 751.812 Q37.7774 751.812 32.6531 747.101 Q27.4968 742.359 27.4968 734.338 Q27.4968 727.145 32.1438 722.975 Q36.7589 718.774 44.7161 718.774 M42.9973 724.63 Q38.1912 724.694 35.3266 727.336 Q32.4621 729.946 32.4621 734.274 Q32.4621 739.176 35.2312 742.136 Q38.0002 745.064 43.0292 745.51 L42.9973 724.63 Z" fill="#000000" fill-rule="nonzero" fill-opacity="1" /><path clip-path="url(#clip260)" d="M14.479 709.162 L14.479 703.305 L64.0042 703.305 L64.0042 709.162 L14.479 709.162 Z" fill="#000000" fill-rule="nonzero" fill-opacity="1" /><path clip-path="url(#clip260)" d="M28.3562 691.051 L28.3562 685.195 L64.0042 685.195 L64.0042 691.051 L28.3562 691.051 M14.479 691.051 L14.479 685.195 L21.895 685.195 L21.895 691.051 L14.479 691.051 Z" fill="#000000" fill-rule="nonzero" fill-opacity="1" /><path clip-path="url(#clip260)" d="M18.2347 667.148 L28.3562 667.148 L28.3562 655.085 L32.9077 655.085 L32.9077 667.148 L52.2594 667.148 Q56.6199 667.148 57.8613 665.97 Q59.1026 664.761 59.1026 661.101 L59.1026 655.085 L64.0042 655.085 L64.0042 661.101 Q64.0042 667.88 61.4897 670.458 Q58.9434 673.036 52.2594 673.036 L32.9077 673.036 L32.9077 677.333 L28.3562 677.333 L28.3562 673.036 L18.2347 673.036 L18.2347 667.148 Z" fill="#000000" fill-rule="nonzero" fill-opacity="1" /><path clip-path="url(#clip260)" d="M67.3143 632.55 Q73.68 635.033 75.6216 637.388 Q77.5631 639.744 77.5631 643.69 L77.5631 648.369 L72.6615 648.369 L72.6615 644.932 Q72.6615 642.513 71.5157 641.176 Q70.3699 639.839 66.1048 638.216 L63.4312 637.165 L28.3562 651.584 L28.3562 645.377 L56.238 634.237 L28.3562 623.097 L28.3562 616.891 L67.3143 632.55 Z" fill="#000000" fill-rule="nonzero" fill-opacity="1" /><polyline clip-path="url(#clip261)" style="stroke:#009af9; stroke-linecap:round; stroke-linejoin:round; stroke-width:4; stroke-opacity:1; fill:none" points="280.231,729.07 300.556,729.07 320.881,729.07 341.206,729.07 361.53,729.07 381.855,729.07 402.18,729.07 422.505,729.07 442.83,729.07 463.155,729.07 483.48,729.07 503.804,729.07 524.129,729.07 544.454,729.07 564.779,729.07 585.104,729.07 605.429,729.07 625.753,729.07 646.078,729.07 666.403,729.07 686.728,729.07 707.053,729.07 727.378,729.07 747.703,729.07 768.027,729.07 788.352,729.07 808.677,729.07 829.002,729.07 849.327,729.07 869.652,729.07 889.977,729.07 910.301,729.07 930.626,729.07 950.951,729.07 971.276,729.07 991.601,729.07 1011.93,729.07 1032.25,729.07 1052.58,729.07 1072.9,729.07 1093.23,729.07 1113.55,729.07 1133.87,729.07 1154.2,729.07 1174.52,729.07 1194.85,729.07 1215.17,729.07 1235.5,729.07 1255.82,729.07 1276.15,729.07 1296.47,729.07 1316.8,729.07 1337.12,729.07 1357.45,729.07 1377.77,729.07 1398.1,729.07 1418.42,729.07 1438.75,729.07 1459.07,729.07 1479.4,729.07 1499.72,729.07 1520.05,729.07 1540.37,729.07 1560.7,729.07 1581.02,729.07 1601.35,729.07 1621.67,729.07 1642,729.07 1662.32,729.07 1682.65,729.07 1702.97,729.07 1723.3,729.07 1743.62,729.07 1763.95,729.07 1784.27,729.07 1804.59,729.07 1824.92,729.07 1845.24,729.07 1865.57,729.07 1885.89,729.07 1906.22,729.07 1926.54,729.07 1946.87,729.07 1967.19,729.07 1987.52,729.07 2007.84,729.07 2028.17,729.07 2048.49,729.07 2068.82,729.07 2089.14,729.07 2109.47,729.07 2129.79,729.07 2150.12,729.07 2170.44,729.07 2190.77,729.07 2211.09,729.07 2231.42,729.07 2251.74,729.07 2272.07,729.07 2292.39,729.07 "/>
<polyline clip-path="url(#clip261)" style="stroke:#e26f46; stroke-linecap:round; stroke-linejoin:round; stroke-width:4; stroke-opacity:1; fill:none" points="280.231,729.274 300.556,729.3 320.881,729.328 341.206,729.36 361.53,729.395 381.855,729.435 402.18,729.48 422.505,729.531 442.83,729.587 463.155,729.651 483.48,729.723 503.804,729.803 524.129,729.893 544.454,729.995 564.779,730.109 585.104,730.237 605.429,730.38 625.753,730.541 646.078,730.723 666.403,730.926 686.728,731.154 707.053,731.411 727.378,731.698 747.703,732.021 768.027,732.384 788.352,732.791 808.677,733.248 829.002,733.76 849.327,734.335 869.652,734.98 889.977,735.704 910.301,736.515 930.626,737.425 950.951,738.444 971.276,739.587 991.601,740.867 1011.93,742.3 1032.25,743.905 1052.58,745.701 1072.9,747.71 1093.23,749.955 1113.55,752.464 1133.87,755.265 1154.2,758.39 1174.52,761.874 1194.85,765.754 1215.17,770.071 1235.5,774.869 1255.82,780.194 1276.15,786.096 1296.47,792.627 1316.8,799.841 1337.12,807.793 1357.45,816.541 1377.77,826.139 1398.1,836.643 1418.42,848.104 1438.75,860.568 1459.07,874.072 1479.4,888.647 1499.72,904.306 1520.05,921.052 1540.37,938.866 1560.7,957.708 1581.02,977.516 1601.35,998.202 1621.67,1019.65 1642,1041.72 1662.32,1064.25 1682.65,1087.05 1702.97,1109.92 1723.3,1132.64 1743.62,1155 1763.95,1176.79 1784.27,1197.81 1804.59,1217.87 1824.92,1236.84 1845.24,1254.58 1865.57,1271.02 1885.89,1286.11 1906.22,1299.84 1926.54,1312.22 1946.87,1323.3 1967.19,1333.15 1987.52,1341.84 2007.84,1349.48 2028.17,1356.15 2048.49,1361.96 2068.82,1367.01 2089.14,1371.38 2109.47,1375.16 2129.79,1378.42 2150.12,1381.24 2170.44,1383.67 2190.77,1385.77 2211.09,1387.59 2231.42,1389.16 2251.74,1390.52 2272.07,1391.7 2292.39,1392.73 "/>
<polyline clip-path="url(#clip261)" style="stroke:#3da44d; stroke-linecap:round; stroke-linejoin:round; stroke-width:4; stroke-opacity:1; fill:none" points="280.231,729.377 300.556,729.414 320.881,729.457 341.206,729.504 361.53,729.558 381.855,729.618 402.18,729.686 422.505,729.761 442.83,729.846 463.155,729.942 483.48,730.05 503.804,730.17 524.129,730.306 544.454,730.458 564.779,730.629 585.104,730.82 605.429,731.036 625.753,731.278 646.078,731.549 666.403,731.854 686.728,732.197 707.053,732.581 727.378,733.012 747.703,733.496 768.027,734.04 788.352,734.649 808.677,735.333 829.002,736.1 849.327,736.961 869.652,737.926 889.977,739.008 910.301,740.221 930.626,741.579 950.951,743.102 971.276,744.806 991.601,746.715 1011.93,748.85 1032.25,751.238 1052.58,753.908 1072.9,756.89 1093.23,760.22 1113.55,763.934 1133.87,768.074 1154.2,772.685 1174.52,777.813 1194.85,783.511 1215.17,789.834 1235.5,796.84 1255.82,804.589 1276.15,813.145 1296.47,822.573 1316.8,832.937 1337.12,844.302 1357.45,856.729 1377.77,870.274 1398.1,884.987 1418.42,900.906 1438.75,918.057 1459.07,936.448 1479.4,956.067 1499.72,976.876 1520.05,998.81 1540.37,1021.77 1560.7,1045.63 1581.02,1070.22 1601.35,1095.34 1621.67,1120.76 1642,1146.23 1662.32,1171.47 1682.65,1196.2 1702.97,1220.13 1723.3,1242.99 1743.62,1264.55 1763.95,1284.6 1784.27,1302.98 1804.59,1319.6 1824.92,1334.41 1845.24,1347.41 1865.57,1358.67 1885.89,1368.29 1906.22,1376.39 1926.54,1383.13 1946.87,1388.68 1967.19,1393.19 1987.52,1396.83 2007.84,1399.73 2028.17,1402.04 2048.49,1403.87 2068.82,1405.3 2089.14,1406.42 2109.47,1407.3 2129.79,1407.99 2150.12,1408.53 2170.44,1408.96 2190.77,1409.29 2211.09,1409.55 2231.42,1409.76 2251.74,1409.93 2272.07,1410.07 2292.39,1410.17 "/>
<polyline clip-path="url(#clip261)" style="stroke:#c271d2; stroke-linecap:round; stroke-linejoin:round; stroke-width:4; stroke-opacity:1; fill:none" points="280.231,729.428 300.556,729.472 320.881,729.521 341.206,729.577 361.53,729.639 381.855,729.71 402.18,729.788 422.505,729.877 442.83,729.976 463.155,730.088 483.48,730.213 503.804,730.354 524.129,730.512 544.454,730.69 564.779,730.889 585.104,731.113 605.429,731.364 625.753,731.647 646.078,731.963 666.403,732.319 686.728,732.719 707.053,733.167 727.378,733.67 747.703,734.235 768.027,734.868 788.352,735.579 808.677,736.376 829.002,737.271 849.327,738.274 869.652,739.398 889.977,740.659 910.301,742.071 930.626,743.654 950.951,745.426 971.276,747.41 991.601,749.63 1011.93,752.113 1032.25,754.888 1052.58,757.989 1072.9,761.452 1093.23,765.314 1113.55,769.62 1133.87,774.415 1154.2,779.75 1174.52,785.678 1194.85,792.257 1215.17,799.546 1235.5,807.611 1255.82,816.517 1276.15,826.331 1296.47,837.121 1316.8,848.955 1337.12,861.895 1357.45,876.003 1377.77,891.327 1398.1,907.909 1418.42,925.774 1438.75,944.93 1459.07,965.361 1479.4,987.026 1499.72,1009.85 1520.05,1033.73 1540.37,1058.52 1560.7,1084.03 1581.02,1110.06 1601.35,1136.33 1621.67,1162.58 1642,1188.5 1662.32,1213.78 1682.65,1238.1 1702.97,1261.17 1723.3,1282.74 1743.62,1302.58 1763.95,1320.55 1784.27,1336.54 1804.59,1350.53 1824.92,1362.55 1845.24,1372.71 1865.57,1381.13 1885.89,1387.99 1906.22,1393.49 1926.54,1397.82 1946.87,1401.18 1967.19,1403.74 1987.52,1405.67 2007.84,1407.11 2028.17,1408.16 2048.49,1408.93 2068.82,1409.49 2089.14,1409.88 2109.47,1410.17 2129.79,1410.37 2150.12,1410.52 2170.44,1410.62 2190.77,1410.69 2211.09,1410.75 2231.42,1410.78 2251.74,1410.81 2272.07,1410.83 2292.39,1410.85 "/>
<path clip-path="url(#clip260)" d="M290.963 351.899 L605.756 351.899 L605.756 92.6992 L290.963 92.6992  Z" fill="#ffffff" fill-rule="evenodd" fill-opacity="1"/>
<polyline clip-path="url(#clip260)" style="stroke:#000000; stroke-linecap:round; stroke-linejoin:round; stroke-width:4; stroke-opacity:1; fill:none" points="290.963,351.899 605.756,351.899 605.756,92.6992 290.963,92.6992 290.963,351.899 "/>
<polyline clip-path="url(#clip260)" style="stroke:#009af9; stroke-linecap:round; stroke-linejoin:round; stroke-width:4; stroke-opacity:1; fill:none" points="314.661,144.539 456.854,144.539 "/>
<path clip-path="url(#clip260)" d="M492.497 130.338 Q488.886 130.338 487.057 133.903 Q485.252 137.444 485.252 144.574 Q485.252 151.68 487.057 155.245 Q488.886 158.787 492.497 158.787 Q496.131 158.787 497.937 155.245 Q499.766 151.68 499.766 144.574 Q499.766 137.444 497.937 133.903 Q496.131 130.338 492.497 130.338 M492.497 126.634 Q498.307 126.634 501.363 131.241 Q504.442 135.824 504.442 144.574 Q504.442 153.301 501.363 157.907 Q498.307 162.49 492.497 162.49 Q486.687 162.49 483.608 157.907 Q480.553 153.301 480.553 144.574 Q480.553 135.824 483.608 131.241 Q486.687 126.634 492.497 126.634 Z" fill="#000000" fill-rule="nonzero" fill-opacity="1" /><path clip-path="url(#clip260)" d="M544.187 139.829 L544.187 125.801 L548.446 125.801 L548.446 161.819 L544.187 161.819 L544.187 157.93 Q542.844 160.245 540.784 161.379 Q538.747 162.49 535.877 162.49 Q531.178 162.49 528.215 158.74 Q525.275 154.991 525.275 148.879 Q525.275 142.768 528.215 139.018 Q531.178 135.268 535.877 135.268 Q538.747 135.268 540.784 136.403 Q542.844 137.514 544.187 139.829 M529.673 148.879 Q529.673 153.578 531.594 156.264 Q533.539 158.926 536.918 158.926 Q540.298 158.926 542.242 156.264 Q544.187 153.578 544.187 148.879 Q544.187 144.18 542.242 141.518 Q540.298 138.833 536.918 138.833 Q533.539 138.833 531.594 141.518 Q529.673 144.18 529.673 148.879 Z" fill="#000000" fill-rule="nonzero" fill-opacity="1" /><path clip-path="url(#clip260)" d="M562.08 145.315 L562.08 157.977 L569.58 157.977 Q573.353 157.977 575.159 156.426 Q576.987 154.852 576.987 151.634 Q576.987 148.393 575.159 146.866 Q573.353 145.315 569.58 145.315 L562.08 145.315 M562.08 131.102 L562.08 141.518 L569.001 141.518 Q572.427 141.518 574.094 140.245 Q575.784 138.949 575.784 136.31 Q575.784 133.694 574.094 132.398 Q572.427 131.102 569.001 131.102 L562.08 131.102 M557.404 127.259 L569.349 127.259 Q574.696 127.259 577.589 129.481 Q580.483 131.704 580.483 135.801 Q580.483 138.972 579.001 140.847 Q577.52 142.722 574.649 143.185 Q578.099 143.926 579.997 146.287 Q581.918 148.625 581.918 152.143 Q581.918 156.773 578.77 159.296 Q575.622 161.819 569.812 161.819 L557.404 161.819 L557.404 127.259 Z" fill="#000000" fill-rule="nonzero" fill-opacity="1" /><polyline clip-path="url(#clip260)" style="stroke:#e26f46; stroke-linecap:round; stroke-linejoin:round; stroke-width:4; stroke-opacity:1; fill:none" points="314.661,196.379 456.854,196.379 "/>
<path clip-path="url(#clip260)" d="M496.178 195.025 Q499.534 195.743 501.409 198.011 Q503.307 200.28 503.307 203.613 Q503.307 208.729 499.789 211.53 Q496.27 214.33 489.789 214.33 Q487.613 214.33 485.298 213.891 Q483.006 213.474 480.553 212.618 L480.553 208.104 Q482.497 209.238 484.812 209.817 Q487.127 210.395 489.65 210.395 Q494.048 210.395 496.34 208.659 Q498.655 206.923 498.655 203.613 Q498.655 200.557 496.502 198.844 Q494.372 197.108 490.553 197.108 L486.525 197.108 L486.525 193.266 L490.738 193.266 Q494.187 193.266 496.016 191.9 Q497.844 190.511 497.844 187.919 Q497.844 185.257 495.946 183.845 Q494.071 182.409 490.553 182.409 Q488.631 182.409 486.432 182.826 Q484.233 183.243 481.594 184.122 L481.594 179.956 Q484.256 179.215 486.571 178.845 Q488.909 178.474 490.969 178.474 Q496.293 178.474 499.395 180.905 Q502.497 183.312 502.497 187.432 Q502.497 190.303 500.854 192.294 Q499.21 194.261 496.178 195.025 Z" fill="#000000" fill-rule="nonzero" fill-opacity="1" /><path clip-path="url(#clip260)" d="M543.701 191.669 L543.701 177.641 L547.96 177.641 L547.96 213.659 L543.701 213.659 L543.701 209.77 Q542.358 212.085 540.298 213.219 Q538.261 214.33 535.39 214.33 Q530.691 214.33 527.728 210.58 Q524.789 206.831 524.789 200.719 Q524.789 194.608 527.728 190.858 Q530.691 187.108 535.39 187.108 Q538.261 187.108 540.298 188.243 Q542.358 189.354 543.701 191.669 M529.187 200.719 Q529.187 205.418 531.108 208.104 Q533.052 210.766 536.432 210.766 Q539.812 210.766 541.756 208.104 Q543.701 205.418 543.701 200.719 Q543.701 196.02 541.756 193.358 Q539.812 190.673 536.432 190.673 Q533.052 190.673 531.108 193.358 Q529.187 196.02 529.187 200.719 Z" fill="#000000" fill-rule="nonzero" fill-opacity="1" /><path clip-path="url(#clip260)" d="M561.594 197.155 L561.594 209.817 L569.094 209.817 Q572.867 209.817 574.673 208.266 Q576.501 206.692 576.501 203.474 Q576.501 200.233 574.673 198.706 Q572.867 197.155 569.094 197.155 L561.594 197.155 M561.594 182.942 L561.594 193.358 L568.515 193.358 Q571.941 193.358 573.608 192.085 Q575.298 190.789 575.298 188.15 Q575.298 185.534 573.608 184.238 Q571.941 182.942 568.515 182.942 L561.594 182.942 M556.918 179.099 L568.862 179.099 Q574.21 179.099 577.103 181.321 Q579.997 183.544 579.997 187.641 Q579.997 190.812 578.515 192.687 Q577.034 194.562 574.163 195.025 Q577.612 195.766 579.511 198.127 Q581.432 200.465 581.432 203.983 Q581.432 208.613 578.284 211.136 Q575.136 213.659 569.325 213.659 L556.918 213.659 L556.918 179.099 Z" fill="#000000" fill-rule="nonzero" fill-opacity="1" /><polyline clip-path="url(#clip260)" style="stroke:#3da44d; stroke-linecap:round; stroke-linejoin:round; stroke-width:4; stroke-opacity:1; fill:none" points="314.661,248.219 456.854,248.219 "/>
<path clip-path="url(#clip260)" d="M492.891 246.356 Q489.743 246.356 487.891 248.509 Q486.062 250.661 486.062 254.411 Q486.062 258.138 487.891 260.314 Q489.743 262.467 492.891 262.467 Q496.039 262.467 497.867 260.314 Q499.719 258.138 499.719 254.411 Q499.719 250.661 497.867 248.509 Q496.039 246.356 492.891 246.356 M502.173 231.703 L502.173 235.962 Q500.414 235.129 498.608 234.689 Q496.826 234.249 495.067 234.249 Q490.437 234.249 487.983 237.374 Q485.553 240.499 485.206 246.819 Q486.571 244.805 488.631 243.74 Q490.692 242.652 493.168 242.652 Q498.377 242.652 501.386 245.823 Q504.418 248.971 504.418 254.411 Q504.418 259.735 501.27 262.953 Q498.122 266.17 492.891 266.17 Q486.895 266.17 483.724 261.587 Q480.553 256.981 480.553 248.254 Q480.553 240.06 484.442 235.198 Q488.331 230.314 494.881 230.314 Q496.641 230.314 498.423 230.661 Q500.229 231.009 502.173 231.703 Z" fill="#000000" fill-rule="nonzero" fill-opacity="1" /><path clip-path="url(#clip260)" d="M544.002 243.509 L544.002 229.481 L548.261 229.481 L548.261 265.499 L544.002 265.499 L544.002 261.61 Q542.659 263.925 540.599 265.059 Q538.562 266.17 535.691 266.17 Q530.992 266.17 528.029 262.42 Q525.09 258.671 525.09 252.559 Q525.09 246.448 528.029 242.698 Q530.992 238.948 535.691 238.948 Q538.562 238.948 540.599 240.083 Q542.659 241.194 544.002 243.509 M529.488 252.559 Q529.488 257.258 531.409 259.944 Q533.353 262.606 536.733 262.606 Q540.113 262.606 542.057 259.944 Q544.002 257.258 544.002 252.559 Q544.002 247.86 542.057 245.198 Q540.113 242.513 536.733 242.513 Q533.353 242.513 531.409 245.198 Q529.488 247.86 529.488 252.559 Z" fill="#000000" fill-rule="nonzero" fill-opacity="1" /><path clip-path="url(#clip260)" d="M561.895 248.995 L561.895 261.657 L569.395 261.657 Q573.168 261.657 574.974 260.106 Q576.802 258.532 576.802 255.314 Q576.802 252.073 574.974 250.546 Q573.168 248.995 569.395 248.995 L561.895 248.995 M561.895 234.782 L561.895 245.198 L568.816 245.198 Q572.242 245.198 573.909 243.925 Q575.599 242.629 575.599 239.99 Q575.599 237.374 573.909 236.078 Q572.242 234.782 568.816 234.782 L561.895 234.782 M557.219 230.939 L569.163 230.939 Q574.511 230.939 577.404 233.161 Q580.298 235.384 580.298 239.481 Q580.298 242.652 578.816 244.527 Q577.335 246.402 574.464 246.865 Q577.913 247.606 579.812 249.967 Q581.733 252.305 581.733 255.823 Q581.733 260.453 578.585 262.976 Q575.437 265.499 569.626 265.499 L557.219 265.499 L557.219 230.939 Z" fill="#000000" fill-rule="nonzero" fill-opacity="1" /><polyline clip-path="url(#clip260)" style="stroke:#c271d2; stroke-linecap:round; stroke-linejoin:round; stroke-width:4; stroke-opacity:1; fill:none" points="314.661,300.059 456.854,300.059 "/>
<path clip-path="url(#clip260)" d="M482.775 316.622 L482.775 312.362 Q484.534 313.196 486.34 313.635 Q488.145 314.075 489.881 314.075 Q494.511 314.075 496.942 310.973 Q499.395 307.848 499.742 301.506 Q498.4 303.497 496.34 304.561 Q494.28 305.626 491.78 305.626 Q486.594 305.626 483.562 302.501 Q480.553 299.353 480.553 293.913 Q480.553 288.589 483.701 285.372 Q486.849 282.154 492.08 282.154 Q498.076 282.154 501.224 286.761 Q504.395 291.344 504.395 300.094 Q504.395 308.265 500.506 313.149 Q496.641 318.01 490.09 318.01 Q488.331 318.01 486.525 317.663 Q484.719 317.316 482.775 316.622 M492.08 301.969 Q495.229 301.969 497.057 299.816 Q498.909 297.663 498.909 293.913 Q498.909 290.187 497.057 288.034 Q495.229 285.858 492.08 285.858 Q488.932 285.858 487.081 288.034 Q485.252 290.187 485.252 293.913 Q485.252 297.663 487.081 299.816 Q488.932 301.969 492.08 301.969 Z" fill="#000000" fill-rule="nonzero" fill-opacity="1" /><path clip-path="url(#clip260)" d="M544.326 295.349 L544.326 281.321 L548.585 281.321 L548.585 317.339 L544.326 317.339 L544.326 313.45 Q542.983 315.765 540.923 316.899 Q538.886 318.01 536.015 318.01 Q531.316 318.01 528.353 314.26 Q525.414 310.511 525.414 304.399 Q525.414 298.288 528.353 294.538 Q531.316 290.788 536.015 290.788 Q538.886 290.788 540.923 291.923 Q542.983 293.034 544.326 295.349 M529.812 304.399 Q529.812 309.098 531.733 311.784 Q533.677 314.446 537.057 314.446 Q540.437 314.446 542.381 311.784 Q544.326 309.098 544.326 304.399 Q544.326 299.7 542.381 297.038 Q540.437 294.353 537.057 294.353 Q533.677 294.353 531.733 297.038 Q529.812 299.7 529.812 304.399 Z" fill="#000000" fill-rule="nonzero" fill-opacity="1" /><path clip-path="url(#clip260)" d="M562.219 300.835 L562.219 313.497 L569.719 313.497 Q573.492 313.497 575.298 311.946 Q577.126 310.372 577.126 307.154 Q577.126 303.913 575.298 302.386 Q573.492 300.835 569.719 300.835 L562.219 300.835 M562.219 286.622 L562.219 297.038 L569.14 297.038 Q572.566 297.038 574.233 295.765 Q575.923 294.469 575.923 291.83 Q575.923 289.214 574.233 287.918 Q572.566 286.622 569.14 286.622 L562.219 286.622 M557.543 282.779 L569.487 282.779 Q574.835 282.779 577.728 285.001 Q580.622 287.224 580.622 291.321 Q580.622 294.492 579.14 296.367 Q577.659 298.242 574.788 298.705 Q578.237 299.446 580.136 301.807 Q582.057 304.145 582.057 307.663 Q582.057 312.293 578.909 314.816 Q575.761 317.339 569.95 317.339 L557.543 317.339 L557.543 282.779 Z" fill="#000000" fill-rule="nonzero" fill-opacity="1" /></svg>
